<svg xmlns="http://www.w3.org/2000/svg" version="1.1" xmlns:xlink="http://www.w3.org/1999/xlink" xmlns:svgjs="http://svgjs.com/svgjs" width="64" height="64"><svg width="64" height="64" viewBox="0 0 64 64" fill="none" xmlns="http://www.w3.org/2000/svg">
<path d="M53.8102 23.55C53.6517 23.2025 53.397 22.9077 53.0762 22.7003C52.7555 22.493 52.3821 22.3818 52.0002 22.38H36.4502L43.0902 4.7C43.2031 4.39774 43.2412 4.07265 43.2013 3.75247C43.1614 3.43229 43.0445 3.12652 42.8608 2.86126C42.6771 2.596 42.432 2.37913 42.1463 2.22916C41.8606 2.07919 41.5428 2.00056 41.2202 2H25.1002C24.7126 1.99974 24.3334 2.11206 24.0085 2.32332C23.6836 2.53458 23.4271 2.83568 23.2702 3.19L10.1802 32.74C10.0456 33.0438 9.98883 33.3764 10.015 33.7076C10.0412 34.0389 10.1495 34.3584 10.3301 34.6373C10.5108 34.9162 10.758 35.1457 11.0496 35.305C11.3412 35.4644 11.6679 35.5486 12.0002 35.55H25.5002L19.1402 59.49C19.0273 59.9257 19.0647 60.3867 19.2463 60.7986C19.4279 61.2104 19.7431 61.5489 20.1409 61.7594C20.5388 61.9699 20.996 62.04 21.4386 61.9585C21.8813 61.8769 22.2835 61.6484 22.5802 61.31L53.5002 25.69C53.7515 25.4005 53.9143 25.0449 53.9693 24.6655C54.0243 24.2861 53.969 23.8989 53.8102 23.55V23.55ZM25.2302 52.17L30.0002 34.06C30.0002 34.06 30.0002 34.06 30.0002 34.01C30.0249 33.8744 30.0416 33.7375 30.0502 33.6C30.0502 33.6 30.0502 33.6 30.0502 33.55C30.0502 33.5 30.0502 33.47 30.0502 33.42C30.0538 33.35 30.0538 33.28 30.0502 33.21C30.0502 33.15 30.0502 33.09 30.0502 33.03C30.0502 32.97 30.0502 32.9 29.9902 32.84C29.9665 32.7787 29.9398 32.7186 29.9102 32.66L29.8202 32.5L29.7102 32.34L29.5902 32.19L29.4502 32.06L29.3002 31.94L29.1302 31.84L28.9602 31.75L28.7602 31.67H28.6402H28.5902H28.3902H28.1902H15.0802L26.4102 6H38.3302L31.6902 23.68C31.6902 23.68 31.6902 23.77 31.6902 23.81C31.641 23.9482 31.614 24.0933 31.6102 24.24C31.6102 24.24 31.6102 24.33 31.6102 24.38C31.6102 24.43 31.6102 24.38 31.6102 24.38C31.6058 24.4566 31.6058 24.5334 31.6102 24.61C31.6102 24.67 31.6102 24.72 31.6102 24.78C31.6102 24.84 31.6102 24.9 31.6702 24.97C31.7302 25.04 31.6702 25.1 31.7302 25.16C31.7902 25.22 31.7902 25.27 31.8202 25.32C31.8502 25.37 31.8802 25.44 31.9202 25.49L32.0402 25.64L32.1602 25.78L32.3102 25.9L32.4702 26.02L32.6202 26.1L32.8302 26.2H32.9602L33.1702 26.26H33.4002H47.6102L25.2302 52.17Z" fill="black"></path>
</svg><style>@media (prefers-color-scheme: light) { :root { filter: none; } }
</style></svg>