<?xml version="1.0" standalone="no"?>
<!DOCTYPE svg PUBLIC "-//W3C//DTD SVG 20010904//EN"
 "http://www.w3.org/TR/2001/REC-SVG-20010904/DTD/svg10.dtd">
<svg version="1.0" xmlns="http://www.w3.org/2000/svg"
 width="512.000000pt" height="512.000000pt" viewBox="0 0 512.000000 512.000000"
 preserveAspectRatio="xMidYMid meet">
<metadata>
Created by potrace 1.14, written by Peter Selinger 2001-2017
</metadata>
<g transform="translate(0.000000,512.000000) scale(0.100000,-0.100000)"
fill="#000000" stroke="none">
<path d="M918 4044 c-96 -24 -173 -96 -202 -187 -14 -45 -22 -55 -50 -65 -49
-18 -118 -83 -144 -136 -28 -55 -38 -137 -24 -189 l10 -37 -107 0 c-140 0
-145 -5 -136 -117 29 -373 169 -700 404 -941 33 -34 61 -64 61 -65 0 -1 -24
-3 -53 -4 -129 -5 -233 -76 -298 -203 -19 -38 -23 -65 -27 -167 l-4 -123 -158
0 c-218 0 -222 -5 -141 -174 141 -291 387 -483 707 -552 73 -15 217 -17 1777
-16 933 0 1723 3 1755 7 336 38 631 249 780 558 54 110 59 133 37 157 -17 19
-32 20 -266 20 l-248 0 15 35 c38 91 -10 231 -88 257 -7 3 -5 14 7 31 25 39
24 121 -3 172 -37 72 -97 115 -163 115 -24 0 -29 4 -29 25 0 59 -44 127 -108
167 -41 25 -136 30 -176 9 -26 -14 -28 -14 -64 27 -77 88 -220 90 -299 5 -13
-13 -23 -28 -23 -34 0 -12 -27 -12 -35 0 -3 5 6 54 19 108 23 91 31 136 40
235 6 74 45 69 -594 70 -316 0 -578 2 -582 4 -3 2 -2 19 3 37 5 17 12 52 15
77 3 25 7 52 10 60 2 8 6 54 9 102 7 113 4 115 -140 114 l-104 -1 7 25 c15 54
6 155 -18 204 -28 55 -96 120 -146 138 -24 8 -37 20 -41 38 -12 51 -53 119
-94 153 -100 87 -258 89 -360 7 -36 -29 -37 -29 -54 -10 -10 11 -42 32 -71 46
-95 47 -240 27 -304 -41 l-22 -24 -22 21 c-62 59 -170 85 -258 62z"/>
</g>
</svg>
